<?xml version="1.0" encoding="UTF-8" standalone="no"?>
<!-- Created with Inkscape (http://www.inkscape.org/) -->
<svg
   xmlns:dc="http://purl.org/dc/elements/1.1/"
   xmlns:cc="http://creativecommons.org/ns#"
   xmlns:rdf="http://www.w3.org/1999/02/22-rdf-syntax-ns#"
   xmlns:svg="http://www.w3.org/2000/svg"
   xmlns="http://www.w3.org/2000/svg"
   xmlns:sodipodi="http://sodipodi.sourceforge.net/DTD/sodipodi-0.dtd"
   xmlns:inkscape="http://www.inkscape.org/namespaces/inkscape"
   width="744.09448819"
   height="1052.3622047"
   id="svg2"
   sodipodi:version="0.32"
   inkscape:version="0.46"
   sodipodi:docname="gardenparty2009.svg"
   inkscape:output_extension="org.inkscape.output.svg.inkscape">
  <defs
     id="defs4">
    <inkscape:perspective
       sodipodi:type="inkscape:persp3d"
       inkscape:vp_x="0 : 526.18109 : 1"
       inkscape:vp_y="0 : 1000 : 0"
       inkscape:vp_z="744.09448 : 526.18109 : 1"
       inkscape:persp3d-origin="372.04724 : 350.78739 : 1"
       id="perspective10" />
    <inkscape:perspective
       id="perspective3384"
       inkscape:persp3d-origin="372.04724 : 350.78739 : 1"
       inkscape:vp_z="744.09448 : 526.18109 : 1"
       inkscape:vp_y="0 : 1000 : 0"
       inkscape:vp_x="0 : 526.18109 : 1"
       sodipodi:type="inkscape:persp3d" />
    <clipPath
       id="clipPath2521"
       clipPathUnits="userSpaceOnUse">
      <path
         id="path2523"
         d="M 0,1367.17 L 0,0 L 6020,0 L 6020,1367.17 L 0,1367.17 z" />
    </clipPath>
    <inkscape:perspective
       id="perspective2511"
       inkscape:persp3d-origin="372.04724 : 350.78739 : 1"
       inkscape:vp_z="744.09448 : 526.18109 : 1"
       inkscape:vp_y="0 : 1000 : 0"
       inkscape:vp_x="0 : 526.18109 : 1"
       sodipodi:type="inkscape:persp3d" />
  </defs>
  <sodipodi:namedview
     id="base"
     pagecolor="#ffffff"
     bordercolor="#666666"
     borderopacity="1.0"
     gridtolerance="10000"
     guidetolerance="10"
     objecttolerance="10"
     inkscape:pageopacity="0.0"
     inkscape:pageshadow="2"
     inkscape:zoom="0.98994949"
     inkscape:cx="483.05172"
     inkscape:cy="181.25229"
     inkscape:document-units="px"
     inkscape:current-layer="layer1"
     showgrid="false"
     inkscape:window-width="1280"
     inkscape:window-height="720"
     inkscape:window-x="0"
     inkscape:window-y="24" />
  <metadata
     id="metadata7">
    <rdf:RDF>
      <cc:Work
         rdf:about="">
        <dc:format>image/svg+xml</dc:format>
        <dc:type
           rdf:resource="http://purl.org/dc/dcmitype/StillImage" />
      </cc:Work>
    </rdf:RDF>
  </metadata>
  <g
     inkscape:label="Layer 1"
     inkscape:groupmode="layer"
     id="layer1">
    <flowRoot
       xml:space="preserve"
       id="flowRoot2392"
       style="font-size:12px;font-style:normal;font-weight:normal;fill:#00c1ff;fill-opacity:1;stroke:none;stroke-width:1px;stroke-linecap:butt;stroke-linejoin:miter;stroke-opacity:1;font-family:Bitstream Vera Sans"
       transform="matrix(3.0850266,0,0,3.0850266,-128.83569,-40.342923)"><flowRegion
         id="flowRegion2394"><rect
           id="rect2396"
           width="183.53535"
           height="16.690193"
           x="61.619305"
           y="65.443146"
           style="fill:#00c1ff;fill-opacity:1" /></flowRegion><flowPara
         id="flowPara2398">student-run computing facility</flowPara></flowRoot>    <text
       xml:space="preserve"
       style="font-size:165.79533386px;font-style:normal;font-weight:normal;fill:#000000;fill-opacity:1;stroke:none;stroke-width:1px;stroke-linecap:butt;stroke-linejoin:miter;stroke-opacity:1;font-family:Bitstream Vera Sans"
       x="56.314175"
       y="158.04788"
       id="text3170"><tspan
         sodipodi:role="line"
         id="tspan3172"
         x="56.314175"
         y="158.04788"
         style="fill:#cc0000;fill-opacity:1">srcf</tspan></text>
    <flowRoot
       xml:space="preserve"
       id="flowRoot3174"
       style="font-size:12px;font-style:normal;font-weight:normal;fill:#000000;fill-opacity:1;stroke:none;stroke-width:1px;stroke-linecap:butt;stroke-linejoin:miter;stroke-opacity:1;font-family:Bitstream Vera Sans"
       transform="matrix(2.9760382,0,0,2.9760382,-233.25978,-474.24927)"><flowRegion
         id="flowRegion3176"><rect
           id="rect3178"
           width="190.29691"
           height="18.522173"
           x="112.12693"
           y="237.16908" /></flowRegion><flowPara
         id="flowPara3180">10th Anniversary Garden party</flowPara></flowRoot>    <flowRoot
       xml:space="preserve"
       id="flowRoot3182"
       style="font-size:12px;font-style:normal;font-weight:normal;fill:#0b66ad;fill-opacity:1;stroke:none;stroke-width:1px;stroke-linecap:butt;stroke-linejoin:miter;stroke-opacity:1;font-family:Bitstream Vera Sans"
       transform="matrix(1.649828,0,0,1.649828,-383.93615,-9.2313989)"><flowRegion
         id="flowRegion3184"><rect
           id="rect3186"
           width="159.6041"
           height="19.192898"
           x="506.08643"
           y="33.118263"
           style="fill:#0b66ad;fill-opacity:1" /></flowRegion><flowPara
         id="flowPara3188">Sponsored by MX Telecom</flowPara></flowRoot>    <flowRoot
       transform="matrix(1.649828,0,0,1.649828,-770.82457,894.85513)"
       style="font-size:12px;font-style:normal;font-weight:normal;fill:#0b66ad;fill-opacity:1;stroke:none;stroke-width:1px;stroke-linecap:butt;stroke-linejoin:miter;stroke-opacity:1;font-family:Bitstream Vera Sans"
       id="flowRoot3190"
       xml:space="preserve"><flowRegion
         id="flowRegion3192"><rect
           style="fill:#0b66ad;fill-opacity:1"
           y="33.118263"
           x="506.08643"
           height="19.192898"
           width="159.6041"
           id="rect3194" /></flowRegion><flowPara
         id="flowPara3196">Sponsored by MX Telecom</flowPara></flowRoot>    <text
       xml:space="preserve"
       style="font-size:18.8605938px;font-style:normal;font-weight:normal;fill:#000000;fill-opacity:1;stroke:none;stroke-width:1px;stroke-linecap:butt;stroke-linejoin:miter;stroke-opacity:1;font-family:Bitstream Vera Sans"
       x="336.76788"
       y="968.1026"
       id="text3198"><tspan
         sodipodi:role="line"
         id="tspan3200"
         x="336.76788"
         y="968.1026">http://www.mxtelecom.com/uk/</tspan></text>
    <text
       xml:space="preserve"
       style="font-size:45.71400833px;font-style:normal;font-weight:normal;fill:#000000;fill-opacity:1;stroke:none;stroke-width:1px;stroke-linecap:butt;stroke-linejoin:miter;stroke-opacity:1;font-family:Bitstream Vera Sans"
       x="64.134636"
       y="908.79022"
       id="text3202"><tspan
         sodipodi:role="line"
         id="tspan3204"
         x="64.134636"
         y="908.79022"
         style="fill:#cc0000;fill-opacity:1">srcf</tspan></text>
    <flowRoot
       xml:space="preserve"
       id="flowRoot3206"
       style="font-size:12px;font-style:normal;font-weight:normal;fill:#00c1ff;fill-opacity:1;stroke:none;stroke-width:1px;stroke-linecap:butt;stroke-linejoin:miter;stroke-opacity:1;font-family:Bitstream Vera Sans"
       transform="matrix(1.3453761,0,0,1.3453761,-15.787527,828.43728)"><flowRegion
         id="flowRegion3208"><rect
           id="rect3210"
           width="184.87207"
           height="16.00839"
           x="61.619305"
           y="65.443146"
           style="fill:#00c1ff;fill-opacity:1" /></flowRegion><flowPara
         id="flowPara3212">student-run computing facility</flowPara></flowRoot>    <text
       xml:space="preserve"
       style="font-size:32.86958694px;font-style:normal;font-weight:normal;fill:#000000;fill-opacity:1;stroke:none;stroke-width:1px;stroke-linecap:butt;stroke-linejoin:miter;stroke-opacity:1;font-family:Bitstream Vera Sans"
       x="337.52472"
       y="915.68518"
       id="text3214"><tspan
         sodipodi:role="line"
         id="tspan3216"
         x="337.52472"
         y="915.68518">www.srcf.ucam.org</tspan></text>
    <text
       xml:space="preserve"
       style="font-size:25.73037148px;font-style:normal;font-weight:normal;fill:#000000;fill-opacity:1;stroke:none;stroke-width:1px;stroke-linecap:butt;stroke-linejoin:miter;stroke-opacity:1;font-family:Bitstream Vera Sans"
       x="118.8606"
       y="349.63708"
       id="text3218"><tspan
         sodipodi:role="line"
         id="tspan3220"
         x="118.8606"
         y="349.63708">Location</tspan></text>
    <text
       xml:space="preserve"
       style="font-size:29.81720352px;font-style:normal;font-weight:normal;fill:#000000;fill-opacity:1;stroke:none;stroke-width:1px;stroke-linecap:butt;stroke-linejoin:miter;stroke-opacity:1;font-family:Bitstream Vera Sans"
       x="238.44821"
       y="349.70093"
       id="text3222"><tspan
         sodipodi:role="line"
         id="tspan3224"
         x="238.44821"
         y="349.70093">Trinity Hall Fellows Garden</tspan></text>
    <text
       xml:space="preserve"
       style="font-size:25.69436646px;font-style:normal;font-weight:normal;fill:#000000;fill-opacity:1;stroke:none;stroke-width:1px;stroke-linecap:butt;stroke-linejoin:miter;stroke-opacity:1;font-family:Bitstream Vera Sans"
       x="118.08531"
       y="399.68536"
       id="text3226"><tspan
         sodipodi:role="line"
         id="tspan3228"
         x="118.08531"
         y="399.68536">Date</tspan></text>
    <text
       xml:space="preserve"
       style="font-size:28.20180893px;font-style:normal;font-weight:normal;fill:#000000;fill-opacity:1;stroke:none;stroke-width:1px;stroke-linecap:butt;stroke-linejoin:miter;stroke-opacity:1;font-family:Bitstream Vera Sans"
       x="238.98276"
       y="397.68063"
       id="text3230"><tspan
         sodipodi:role="line"
         id="tspan3232"
         x="238.98276"
         y="397.68063">Wednesday 10th June</tspan></text>
    <text
       xml:space="preserve"
       style="font-size:25.69436646px;font-style:normal;font-weight:normal;fill:#000000;fill-opacity:1;stroke:none;stroke-width:1px;stroke-linecap:butt;stroke-linejoin:miter;stroke-opacity:1;font-family:Bitstream Vera Sans"
       x="120.24828"
       y="449.43286"
       id="text3234"><tspan
         sodipodi:role="line"
         id="tspan3236"
         x="120.24828"
         y="449.43286">Time</tspan></text>
    <text
       xml:space="preserve"
       style="font-size:28.20180893px;font-style:normal;font-weight:normal;fill:#000000;fill-opacity:1;stroke:none;stroke-width:1px;stroke-linecap:butt;stroke-linejoin:miter;stroke-opacity:1;font-family:Bitstream Vera Sans"
       x="236.96246"
       y="450.31357"
       id="text3238"><tspan
         sodipodi:role="line"
         id="tspan3240"
         x="236.96246"
         y="450.31357">11:30-14:30</tspan></text>
    <text
       xml:space="preserve"
       style="font-size:25.69436646px;font-style:normal;font-weight:normal;fill:#000000;fill-opacity:1;stroke:none;stroke-width:1px;stroke-linecap:butt;stroke-linejoin:miter;stroke-opacity:1;font-family:Bitstream Vera Sans"
       x="120.24828"
       y="488.78192"
       id="text3242"><tspan
         sodipodi:role="line"
         id="tspan3244"
         x="120.24828"
         y="488.78192">Cost</tspan></text>
    <text
       xml:space="preserve"
       style="font-size:28.20180893px;font-style:normal;font-weight:normal;fill:#000000;fill-opacity:1;stroke:none;stroke-width:1px;stroke-linecap:butt;stroke-linejoin:miter;stroke-opacity:1;font-family:Bitstream Vera Sans"
       x="235.54765"
       y="492.3894"
       id="text3246"><tspan
         sodipodi:role="line"
         id="tspan3248"
         x="235.54765"
         y="492.3894">Free to SRCF members </tspan><tspan
         sodipodi:role="line"
         x="235.54765"
         y="527.64166"
         id="tspan3254">(free lifetime membership)</tspan></text>
    <text
       xml:space="preserve"
       style="font-size:14.81801891px;font-style:normal;font-weight:normal;fill:#000000;fill-opacity:1;stroke:none;stroke-width:1px;stroke-linecap:butt;stroke-linejoin:miter;stroke-opacity:1;font-family:Bitstream Vera Sans"
       x="105.78945"
       y="858.53363"
       id="text3250"><tspan
         sodipodi:role="line"
         id="tspan3252"
         x="105.78945"
         y="858.53363">Become a SRCF member: free for life https://www.srcf.ucam.org/signup/</tspan></text>
    <text
       xml:space="preserve"
       style="font-size:25.67744064px;font-style:normal;font-weight:normal;fill:#000000;fill-opacity:1;stroke:none;stroke-width:1px;stroke-linecap:butt;stroke-linejoin:miter;stroke-opacity:1;font-family:Bitstream Vera Sans"
       x="98.540825"
       y="606.69128"
       id="text3256"><tspan
         sodipodi:role="line"
         id="tspan3258"
         x="98.540825"
         y="606.69128">Who are we?</tspan></text>
    <text
       xml:space="preserve"
       style="font-size:12px;font-style:normal;font-weight:normal;fill:#000000;fill-opacity:1;stroke:none;stroke-width:1px;stroke-linecap:butt;stroke-linejoin:miter;stroke-opacity:1;font-family:Bitstream Vera Sans"
       x="101.01526"
       y="623.04736"
       id="text3260"><tspan
         sodipodi:role="line"
         x="101.01526"
         y="623.04736"
         id="tspan3264">We exist as a university society to provide useful, flexible computing and network services </tspan><tspan
         sodipodi:role="line"
         x="101.01526"
         y="638.04736"
         id="tspan3268">for University of Cambridge Staff and Students of all degrees of ability. </tspan></text>
    <text
       xml:space="preserve"
       style="font-size:27.08373642px;font-style:normal;font-weight:normal;fill:#000000;fill-opacity:1;stroke:none;stroke-width:1px;stroke-linecap:butt;stroke-linejoin:miter;stroke-opacity:1;font-family:Bitstream Vera Sans"
       x="99.50428"
       y="673.90344"
       id="text3270"><tspan
         sodipodi:role="line"
         id="tspan3272"
         x="99.50428"
         y="673.90344">What do we provide?</tspan></text>
    <text
       xml:space="preserve"
       style="font-size:12px;font-style:normal;font-weight:normal;fill:#000000;fill-opacity:1;stroke:none;stroke-width:1px;stroke-linecap:butt;stroke-linejoin:miter;stroke-opacity:1;font-family:Bitstream Vera Sans"
       x="102.02541"
       y="687.69708"
       id="text3274"><tspan
         sodipodi:role="line"
         id="tspan3276"
         x="102.02541"
         y="687.69708">    * Website hosting with a rich variety of features</tspan><tspan
         sodipodi:role="line"
         x="102.02541"
         y="702.69708"
         id="tspan3278">    * Email and mailing lists @srcf.ucam.org</tspan><tspan
         sodipodi:role="line"
         x="102.02541"
         y="717.69708"
         id="tspan3280">    * 500MB of file or webspace (and more if required)</tspan><tspan
         sodipodi:role="line"
         x="102.02541"
         y="732.69708"
         id="tspan3282">    * Graphical desktop service</tspan><tspan
         sodipodi:role="line"
         x="102.02541"
         y="747.69708"
         id="tspan3284">    * LAN parties</tspan><tspan
         sodipodi:role="line"
         x="102.02541"
         y="762.69708"
         id="tspan3286">    * Free lifelong email and website forwarding when you graduate</tspan><tspan
         sodipodi:role="line"
         x="102.02541"
         y="777.69708"
         id="tspan3288">    * Friendly and helpful sysadmins</tspan><tspan
         sodipodi:role="line"
         x="102.02541"
         y="792.69708"
         id="tspan3290">    * All of the above for any society you want the SRCF to host as well</tspan><tspan
         sodipodi:role="line"
         x="102.02541"
         y="807.69708"
         id="tspan3292">    * And much much more - see www.srcf.ucam.org/services/ for more details</tspan><tspan
         sodipodi:role="line"
         x="102.02541"
         y="822.69708"
         id="tspan3296">... all for free?  Yes :)</tspan></text>
    <g
       transform="matrix(0.3556291,0,0,-0.3556291,470.25783,134.68157)"
       inkscape:label="mxtelecom"
       id="g2513">
      <g
         transform="scale(0.1,0.1)"
         id="g2515">
        <g
           id="g2517">
          <g
             clip-path="url(#clipPath2521)"
             id="g2519">
            <path
               id="path2525"
               style="fill:#76aee2;fill-opacity:1;fill-rule:nonzero;stroke:none"
               d="M 1755.25,765.031 L 1682.75,765.031 L 1682.75,882.531 L 1755.25,882.531 L 1755.25,1009.99 L 1901.5,1063.78 L 1901.5,882.531 L 2074,882.531 L 2074,765.031 L 1901.5,765.031 L 1901.5,490.461 C 1901.5,445.578 1908.53,413.859 1922.63,395.324 C 1936.71,376.789 1961.38,367.531 1996.62,367.531 C 2031.83,367.531 2064.7,377.102 2095.25,396.281 L 2095.25,261.379 C 2061.25,249.66 2012.79,243.781 1949.88,243.781 C 1887.34,243.781 1839.25,261.441 1805.66,296.789 C 1772.05,332.121 1755.25,382.395 1755.25,447.59 L 1755.25,765.031" />
            <path
               id="path2527"
               style="fill:#76aee2;fill-opacity:1;fill-rule:nonzero;stroke:none"
               d="M 2320.45,633.781 L 2626.7,633.781 C 2616.61,725.441 2566.14,771.281 2475.32,771.281 C 2392.25,771.281 2340.63,725.441 2320.45,633.781 z M 2761.92,523.781 L 2314.2,523.781 C 2316.92,473.996 2334.07,435.305 2365.63,407.688 C 2397.19,380.07 2439.65,366.281 2493.05,366.281 C 2559.67,366.281 2610.32,383.781 2645,418.781 L 2701.7,306.281 C 2650.26,264.602 2573.52,243.781 2471.45,243.781 C 2375.98,243.781 2300.49,271.75 2244.99,327.73 C 2189.46,383.703 2161.7,461.809 2161.7,562.062 C 2161.7,660.734 2192.21,740.676 2253.25,801.926 C 2314.28,863.156 2387.5,893.781 2472.93,893.781 C 2563.79,893.781 2636.7,866.652 2691.7,812.395 C 2746.7,758.137 2774.2,689.055 2774.2,605.148 C 2774.2,587.199 2770.1,560.07 2761.92,523.781" />
            <path
               id="path2529"
               style="fill:#76aee2;fill-opacity:1;fill-rule:nonzero;stroke:none"
               d="M 2883.78,1116.12 L 3030.03,1151.28 L 3030.03,446.457 C 3030.03,369.191 3053.35,323.141 3100.03,308.309 C 3077.29,265.289 3038.53,243.781 2983.68,243.781 C 2917.08,243.781 2883.78,289.84 2883.78,381.945 L 2883.78,1116.12" />
            <path
               id="path2531"
               style="fill:#76aee2;fill-opacity:1;fill-rule:nonzero;stroke:none"
               d="M 3316.11,633.781 L 3622.36,633.781 C 3612.27,725.441 3561.8,771.281 3470.98,771.281 C 3387.91,771.281 3336.29,725.441 3316.11,633.781 z M 3757.58,523.781 L 3309.86,523.781 C 3312.58,473.996 3329.73,435.305 3361.29,407.688 C 3392.85,380.07 3435.31,366.281 3488.71,366.281 C 3555.33,366.281 3605.98,383.781 3640.66,418.781 L 3697.36,306.281 C 3645.92,264.602 3569.18,243.781 3467.11,243.781 C 3371.64,243.781 3296.15,271.75 3240.64,327.73 C 3185.12,383.703 3157.36,461.809 3157.36,562.062 C 3157.36,660.734 3187.87,740.676 3248.91,801.926 C 3309.94,863.156 3383.16,893.781 3468.59,893.781 C 3559.45,893.781 3632.36,866.652 3687.36,812.395 C 3742.36,758.137 3769.86,689.055 3769.86,605.148 C 3769.86,587.199 3765.76,560.07 3757.58,523.781" />
            <path
               id="path2533"
               style="fill:#76aee2;fill-opacity:1;fill-rule:nonzero;stroke:none"
               d="M 4388.02,832.531 L 4325.46,722.531 C 4291.16,755.031 4245.17,771.281 4187.49,771.281 C 4132.14,771.281 4088.39,752.863 4056.24,716.047 C 4024.09,679.23 4008.02,628.293 4008.02,563.234 C 4008.02,431.926 4070.62,366.281 4195.83,366.281 C 4250.05,366.281 4297.82,384.191 4339.19,420.031 L 4393.02,305.031 C 4350.46,278.328 4313.27,261.461 4281.47,254.391 C 4249.66,247.32 4212.08,243.781 4168.76,243.781 C 4071.96,243.781 3995.56,271.949 3939.54,328.309 C 3883.53,384.68 3855.52,462.98 3855.52,563.215 C 3855.52,661.887 3886.14,741.652 3947.39,802.512 C 4008.64,863.352 4092.12,893.781 4197.84,893.781 C 4270.77,893.781 4334.17,873.352 4388.02,832.531" />
            <path
               id="path2535"
               style="fill:#76aee2;fill-opacity:1;fill-rule:nonzero;stroke:none"
               d="M 4603.82,570.246 C 4603.82,432.59 4653.49,363.781 4752.86,363.781 C 4798.45,363.781 4834.58,381.652 4861.28,417.434 C 4887.96,453.195 4901.32,504.133 4901.32,570.246 C 4901.32,705.93 4851.83,773.781 4752.86,773.781 C 4707.28,773.781 4671.03,755.891 4644.15,720.129 C 4617.26,684.348 4603.82,634.387 4603.82,570.246 z M 4451.32,570.246 C 4451.32,665.793 4478.94,743.605 4534.17,803.684 C 4589.4,863.742 4662.29,893.781 4752.86,893.781 C 4848.1,893.781 4922.08,864.914 4974.78,807.18 C 5027.47,749.445 5053.82,670.48 5053.82,570.246 C 5053.82,470.383 5026.98,391.008 4973.31,332.121 C 4919.64,273.211 4846.14,243.781 4752.86,243.781 C 4657.61,243.781 4583.54,273.512 4530.65,333 C 4477.76,392.473 4451.32,471.555 4451.32,570.246" />
            <path
               id="path2537"
               style="fill:#76aee2;fill-opacity:1;fill-rule:nonzero;stroke:none"
               d="M 5869.6,255.031 L 5869.6,647.785 C 5869.6,730.109 5832.57,771.281 5758.51,771.281 C 5736.55,771.281 5715.38,764.836 5695.01,751.965 C 5674.62,739.074 5652.1,715.109 5652.1,645.816 L 5652.1,255.109 L 5505.85,255.031 L 5505.85,670.598 C 5505.85,701.418 5496.24,725.91 5477.04,744.055 C 5457.82,762.199 5430.79,771.281 5395.93,771.281 C 5377.49,771.281 5354.9,765.355 5333.14,751.816 C 5311.39,738.266 5288.35,709.07 5288.35,646.73 L 5288.35,255.031 L 5142.1,255.031 L 5142.1,882.531 L 5242.96,882.531 L 5272.86,827.531 C 5313.53,871.691 5366.1,893.781 5430.62,893.781 C 5513.88,893.781 5576.63,871.281 5618.86,826.281 C 5637.22,846.828 5662.82,863.215 5695.67,875.441 C 5728.51,887.668 5761.34,893.781 5794.19,893.781 C 5864.15,893.781 5918.58,873.762 5957.49,833.762 C 5996.4,793.762 6015.85,738.82 6015.85,668.957 L 6015.85,255.031 L 5869.6,255.031" />
            <path
               id="path2539"
               style="fill:#377ac7;fill-opacity:1;fill-rule:nonzero;stroke:none"
               d="M 889.727,255.031 L 742.227,255.031 L 653.477,717.531 L 480.977,243.781 L 425.977,243.781 L 252.852,717.531 L 160.977,255.031 L 13.4766,255.031 L 185.977,1113.78 L 267.227,1113.78 L 453.477,535.031 L 634.727,1113.78 L 714.727,1113.78 L 889.727,255.031" />
            <path
               id="path2541"
               style="fill:#377ac7;fill-opacity:1;fill-rule:nonzero;stroke:none"
               d="M 1448.87,255.031 L 1255.74,567.941 L 1057.62,255.031 L 898.867,255.031 L 1177.13,695.324 L 918.867,1113.78 L 1075.12,1113.2 L 1257.81,823 L 1441.37,1113.78 L 1601.37,1113.78 L 1337.29,696.691 L 1615.12,255.031 L 1448.87,255.031" />
            <path
               id="path2543"
               style="fill:#76aee2;fill-opacity:1;fill-rule:nonzero;stroke:none"
               d="M 6020,1246.56 L 6020,1367.17 L 1925.83,1367.17 L 1849.47,1246.56 L 6020,1246.56" />
            <path
               id="path2545"
               style="fill:#377ac7;fill-opacity:1;fill-rule:nonzero;stroke:none"
               d="M 1689.79,1246.56 L 1765.93,1367.17 L 0,1367.17 L 0,1246.56 L 1689.79,1246.56" />
            <path
               id="path2547"
               style="fill:#76aee2;fill-opacity:1;fill-rule:nonzero;stroke:none"
               d="M 648.258,120.68 L 0,120.68 L 0,0 L 571.848,0 L 642.922,112.25 L 648.258,120.68" />
            <path
               id="path2549"
               style="fill:#377ac7;fill-opacity:1;fill-rule:nonzero;stroke:none"
               d="M 807.938,120.68 L 805.492,116.801 L 731.762,0 L 6020,0 L 6020,120.68 L 807.938,120.68" />
          </g>
        </g>
      </g>
    </g>
    <g
       transform="matrix(0.2599224,0,0,-0.2599224,284.38977,1013.5615)"
       inkscape:label="mxtelecom"
       id="g2571">
      <g
         transform="scale(0.1,0.1)"
         id="g2573">
        <g
           id="g2575">
          <g
             clip-path="url(#clipPath2521)"
             id="g2577">
            <path
               id="path2579"
               style="fill:#76aee2;fill-opacity:1;fill-rule:nonzero;stroke:none"
               d="M 1755.25,765.031 L 1682.75,765.031 L 1682.75,882.531 L 1755.25,882.531 L 1755.25,1009.99 L 1901.5,1063.78 L 1901.5,882.531 L 2074,882.531 L 2074,765.031 L 1901.5,765.031 L 1901.5,490.461 C 1901.5,445.578 1908.53,413.859 1922.63,395.324 C 1936.71,376.789 1961.38,367.531 1996.62,367.531 C 2031.83,367.531 2064.7,377.102 2095.25,396.281 L 2095.25,261.379 C 2061.25,249.66 2012.79,243.781 1949.88,243.781 C 1887.34,243.781 1839.25,261.441 1805.66,296.789 C 1772.05,332.121 1755.25,382.395 1755.25,447.59 L 1755.25,765.031" />
            <path
               id="path2581"
               style="fill:#76aee2;fill-opacity:1;fill-rule:nonzero;stroke:none"
               d="M 2320.45,633.781 L 2626.7,633.781 C 2616.61,725.441 2566.14,771.281 2475.32,771.281 C 2392.25,771.281 2340.63,725.441 2320.45,633.781 z M 2761.92,523.781 L 2314.2,523.781 C 2316.92,473.996 2334.07,435.305 2365.63,407.688 C 2397.19,380.07 2439.65,366.281 2493.05,366.281 C 2559.67,366.281 2610.32,383.781 2645,418.781 L 2701.7,306.281 C 2650.26,264.602 2573.52,243.781 2471.45,243.781 C 2375.98,243.781 2300.49,271.75 2244.99,327.73 C 2189.46,383.703 2161.7,461.809 2161.7,562.062 C 2161.7,660.734 2192.21,740.676 2253.25,801.926 C 2314.28,863.156 2387.5,893.781 2472.93,893.781 C 2563.79,893.781 2636.7,866.652 2691.7,812.395 C 2746.7,758.137 2774.2,689.055 2774.2,605.148 C 2774.2,587.199 2770.1,560.07 2761.92,523.781" />
            <path
               id="path2583"
               style="fill:#76aee2;fill-opacity:1;fill-rule:nonzero;stroke:none"
               d="M 2883.78,1116.12 L 3030.03,1151.28 L 3030.03,446.457 C 3030.03,369.191 3053.35,323.141 3100.03,308.309 C 3077.29,265.289 3038.53,243.781 2983.68,243.781 C 2917.08,243.781 2883.78,289.84 2883.78,381.945 L 2883.78,1116.12" />
            <path
               id="path2585"
               style="fill:#76aee2;fill-opacity:1;fill-rule:nonzero;stroke:none"
               d="M 3316.11,633.781 L 3622.36,633.781 C 3612.27,725.441 3561.8,771.281 3470.98,771.281 C 3387.91,771.281 3336.29,725.441 3316.11,633.781 z M 3757.58,523.781 L 3309.86,523.781 C 3312.58,473.996 3329.73,435.305 3361.29,407.688 C 3392.85,380.07 3435.31,366.281 3488.71,366.281 C 3555.33,366.281 3605.98,383.781 3640.66,418.781 L 3697.36,306.281 C 3645.92,264.602 3569.18,243.781 3467.11,243.781 C 3371.64,243.781 3296.15,271.75 3240.64,327.73 C 3185.12,383.703 3157.36,461.809 3157.36,562.062 C 3157.36,660.734 3187.87,740.676 3248.91,801.926 C 3309.94,863.156 3383.16,893.781 3468.59,893.781 C 3559.45,893.781 3632.36,866.652 3687.36,812.395 C 3742.36,758.137 3769.86,689.055 3769.86,605.148 C 3769.86,587.199 3765.76,560.07 3757.58,523.781" />
            <path
               id="path2587"
               style="fill:#76aee2;fill-opacity:1;fill-rule:nonzero;stroke:none"
               d="M 4388.02,832.531 L 4325.46,722.531 C 4291.16,755.031 4245.17,771.281 4187.49,771.281 C 4132.14,771.281 4088.39,752.863 4056.24,716.047 C 4024.09,679.23 4008.02,628.293 4008.02,563.234 C 4008.02,431.926 4070.62,366.281 4195.83,366.281 C 4250.05,366.281 4297.82,384.191 4339.19,420.031 L 4393.02,305.031 C 4350.46,278.328 4313.27,261.461 4281.47,254.391 C 4249.66,247.32 4212.08,243.781 4168.76,243.781 C 4071.96,243.781 3995.56,271.949 3939.54,328.309 C 3883.53,384.68 3855.52,462.98 3855.52,563.215 C 3855.52,661.887 3886.14,741.652 3947.39,802.512 C 4008.64,863.352 4092.12,893.781 4197.84,893.781 C 4270.77,893.781 4334.17,873.352 4388.02,832.531" />
            <path
               id="path2589"
               style="fill:#76aee2;fill-opacity:1;fill-rule:nonzero;stroke:none"
               d="M 4603.82,570.246 C 4603.82,432.59 4653.49,363.781 4752.86,363.781 C 4798.45,363.781 4834.58,381.652 4861.28,417.434 C 4887.96,453.195 4901.32,504.133 4901.32,570.246 C 4901.32,705.93 4851.83,773.781 4752.86,773.781 C 4707.28,773.781 4671.03,755.891 4644.15,720.129 C 4617.26,684.348 4603.82,634.387 4603.82,570.246 z M 4451.32,570.246 C 4451.32,665.793 4478.94,743.605 4534.17,803.684 C 4589.4,863.742 4662.29,893.781 4752.86,893.781 C 4848.1,893.781 4922.08,864.914 4974.78,807.18 C 5027.47,749.445 5053.82,670.48 5053.82,570.246 C 5053.82,470.383 5026.98,391.008 4973.31,332.121 C 4919.64,273.211 4846.14,243.781 4752.86,243.781 C 4657.61,243.781 4583.54,273.512 4530.65,333 C 4477.76,392.473 4451.32,471.555 4451.32,570.246" />
            <path
               id="path2591"
               style="fill:#76aee2;fill-opacity:1;fill-rule:nonzero;stroke:none"
               d="M 5869.6,255.031 L 5869.6,647.785 C 5869.6,730.109 5832.57,771.281 5758.51,771.281 C 5736.55,771.281 5715.38,764.836 5695.01,751.965 C 5674.62,739.074 5652.1,715.109 5652.1,645.816 L 5652.1,255.109 L 5505.85,255.031 L 5505.85,670.598 C 5505.85,701.418 5496.24,725.91 5477.04,744.055 C 5457.82,762.199 5430.79,771.281 5395.93,771.281 C 5377.49,771.281 5354.9,765.355 5333.14,751.816 C 5311.39,738.266 5288.35,709.07 5288.35,646.73 L 5288.35,255.031 L 5142.1,255.031 L 5142.1,882.531 L 5242.96,882.531 L 5272.86,827.531 C 5313.53,871.691 5366.1,893.781 5430.62,893.781 C 5513.88,893.781 5576.63,871.281 5618.86,826.281 C 5637.22,846.828 5662.82,863.215 5695.67,875.441 C 5728.51,887.668 5761.34,893.781 5794.19,893.781 C 5864.15,893.781 5918.58,873.762 5957.49,833.762 C 5996.4,793.762 6015.85,738.82 6015.85,668.957 L 6015.85,255.031 L 5869.6,255.031" />
            <path
               id="path2593"
               style="fill:#377ac7;fill-opacity:1;fill-rule:nonzero;stroke:none"
               d="M 889.727,255.031 L 742.227,255.031 L 653.477,717.531 L 480.977,243.781 L 425.977,243.781 L 252.852,717.531 L 160.977,255.031 L 13.4766,255.031 L 185.977,1113.78 L 267.227,1113.78 L 453.477,535.031 L 634.727,1113.78 L 714.727,1113.78 L 889.727,255.031" />
            <path
               id="path2595"
               style="fill:#377ac7;fill-opacity:1;fill-rule:nonzero;stroke:none"
               d="M 1448.87,255.031 L 1255.74,567.941 L 1057.62,255.031 L 898.867,255.031 L 1177.13,695.324 L 918.867,1113.78 L 1075.12,1113.2 L 1257.81,823 L 1441.37,1113.78 L 1601.37,1113.78 L 1337.29,696.691 L 1615.12,255.031 L 1448.87,255.031" />
            <path
               id="path2597"
               style="fill:#76aee2;fill-opacity:1;fill-rule:nonzero;stroke:none"
               d="M 6020,1246.56 L 6020,1367.17 L 1925.83,1367.17 L 1849.47,1246.56 L 6020,1246.56" />
            <path
               id="path2599"
               style="fill:#377ac7;fill-opacity:1;fill-rule:nonzero;stroke:none"
               d="M 1689.79,1246.56 L 1765.93,1367.17 L 0,1367.17 L 0,1246.56 L 1689.79,1246.56" />
            <path
               id="path2601"
               style="fill:#76aee2;fill-opacity:1;fill-rule:nonzero;stroke:none"
               d="M 648.258,120.68 L 0,120.68 L 0,0 L 571.848,0 L 642.922,112.25 L 648.258,120.68" />
            <path
               id="path2603"
               style="fill:#377ac7;fill-opacity:1;fill-rule:nonzero;stroke:none"
               d="M 807.938,120.68 L 805.492,116.801 L 731.762,0 L 6020,0 L 6020,120.68 L 807.938,120.68" />
          </g>
        </g>
      </g>
    </g>
    <text
       xml:space="preserve"
       style="font-size:12px;font-style:normal;font-weight:normal;text-align:center;text-anchor:middle;fill:#000000;fill-opacity:1;stroke:none;stroke-width:1px;stroke-linecap:butt;stroke-linejoin:miter;stroke-opacity:1;font-family:Bitstream Vera Sans"
       x="362.64478"
       y="547.28589"
       id="text2482"><tspan
         sodipodi:role="line"
         id="tspan2484"
         x="364.55493"
         y="547.28589">Peter Brett is organising a simultaneous PGP key signing party. </tspan><tspan
         sodipodi:role="line"
         x="362.64478"
         y="562.28589"
         id="tspan2486">Please email ptbb2 with your public key if you wish to take part.</tspan><tspan
         sodipodi:role="line"
         x="362.64478"
         y="577.28589"
         id="tspan2488">(if you don't know what this means ignore it.)</tspan></text>
  </g>
</svg>
