<svg xmlns="http://www.w3.org/2000/svg" xmlns:xlink="http://www.w3.org/1999/xlink" viewBox="0 0 245.97 404.26"><defs><style>.a{fill:url(#a);}.b{fill:url(#b);}.c{fill:url(#c);}.d{fill:url(#d);}.e{fill:url(#e);}.f{fill:#f2185d;}.g,.j{fill:none;}.h{fill:#386fb4;}.i{fill:#fff;}.j{stroke:#fff;stroke-linecap:round;stroke-linejoin:round;stroke-width:0;}</style><linearGradient id="a" x1="33.9" y1="404.26" x2="33.9" gradientUnits="userSpaceOnUse"><stop offset="0.7"/><stop offset="1" stop-color="#898e8c" stop-opacity="0"/></linearGradient><linearGradient id="b" x1="78.44" y1="404.26" x2="78.44" gradientUnits="userSpaceOnUse"><stop offset="0.7" stop-color="#003893"/><stop offset="1" stop-color="#a3c1c9" stop-opacity="0"/></linearGradient><linearGradient id="c" x1="122.98" y1="404.26" x2="122.98" y2="0" xlink:href="#a"/><linearGradient id="d" x1="167.53" y1="404.26" x2="167.53" gradientUnits="userSpaceOnUse"><stop offset="0.7" stop-color="#a50034"/><stop offset="1" stop-color="#a3c1c9" stop-opacity="0"/></linearGradient><linearGradient id="e" x1="212.07" y1="404.26" x2="212.07" y2="0" xlink:href="#a"/></defs><title>scrf-dark-outline</title><rect class="a" width="67.79" height="404.26"/><rect class="b" x="67.79" width="21.3" height="404.26"/><rect class="c" x="89.09" width="67.79" height="404.26"/><rect class="d" x="156.88" width="21.3" height="404.26"/><rect class="e" x="178.18" width="67.79" height="404.26"/><path class="f" d="M114.12,309.9a13.48,13.48,0,0,0-7.31-3.3l-4.4-.77a9.82,9.82,0,0,1-5.09-2.17,5.7,5.7,0,0,1-1.67-4.37,6.25,6.25,0,0,1,2.17-5,9.15,9.15,0,0,1,6.07-1.84q7.53,0,8.19,7.09h4c-.4-3.55-1.68-6.2-3.82-7.94A12.7,12.7,0,0,0,104,289a13.32,13.32,0,0,0-8.85,2.8,9.61,9.61,0,0,0-3.35,7.81,8.92,8.92,0,0,0,2.47,6.73,13,13,0,0,0,7.09,3.16l4.29.71a10.54,10.54,0,0,1,5.33,2.2,6.08,6.08,0,0,1,1.76,4.73,6.43,6.43,0,0,1-2.23,5.28q-2.22,1.81-6.51,1.81-8.25,0-9-7.53H91q.49,5.44,3.73,8.25c2.16,1.86,5.15,2.8,9,2.8q6,0,9.51-2.83a9.74,9.74,0,0,0,3.46-8A9.35,9.35,0,0,0,114.12,309.9Z"/><path class="g" d="M140.9,300.09a6.74,6.74,0,0,0-2-5.3,8.34,8.34,0,0,0-5.75-1.79h-9.73v14.18h9.73a8.21,8.21,0,0,0,5.72-1.84A6.74,6.74,0,0,0,140.9,300.09Z"/><path class="f" d="M136.78,310.26a10.46,10.46,0,0,0,6-3.52,10.28,10.28,0,0,0,2.14-6.71c0-3.4-1-6-3-7.88s-4.82-2.78-8.38-2.78H119.41V327.3h4V310.64h9.13l8.57,16.66h4.62ZM130,307.18h-6.55V293h9.73a8.34,8.34,0,0,1,5.75,1.79,7.91,7.91,0,0,1,0,10.55,8.21,8.21,0,0,1-5.72,1.84Z"/><path class="h" d="M116,300.36q-6.1,0-9.73,3.49a10.14,10.14,0,0,0-1.65,2.11l2.27.4c.69.12,1.34.27,2,.44l.19-.23Q111.39,304,116,304a12.18,12.18,0,0,1,3.2.4v-3.74A17.23,17.23,0,0,0,116,300.36Z"/><path class="h" d="M128.83,310.89a11.88,11.88,0,0,0-1-4c-.17-.36-.36-.72-.57-1.07a11,11,0,0,0-.71-1,10.4,10.4,0,0,0-2.9-2.53v5.25a7.45,7.45,0,0,1,1.13,3.34,9.33,9.33,0,0,1,.06,1.07v.17h4V312C128.88,311.6,128.86,311.24,128.83,310.89Z"/><path class="h" d="M124.86,327.41v.22a7.39,7.39,0,0,1-2.36,5.79,9.39,9.39,0,0,1-6.49,2.12q-8.06,0-9.2-7.81a20.14,20.14,0,0,1-.2-2.8V315a20.27,20.27,0,0,1,.42-4.3,14.55,14.55,0,0,0-1.47-.32l-2.49-.42a23.46,23.46,0,0,0-.47,4.87v9.84a27.21,27.21,0,0,0,.19,3.22c.43,3.4,1.57,6,3.44,7.8q3.63,3.5,9.73,3.49,5.88,0,9.34-3.13a10.85,10.85,0,0,0,3.47-8.46v-.22Z"/><polygon class="h" points="141 317.76 141 317.76 136.2 317.76 136.2 317.51 135.96 317.51 135.96 317.8 137.8 321.39 142.91 321.39 142.91 321.39 152.47 321.39 152.47 317.76 141 317.76"/><polygon class="h" points="132.19 310.89 132.19 338.75 136.2 338.75 136.2 321.39 137.8 321.39 132.4 310.89 132.19 310.89"/><path class="h" d="M145.13,300.83H132.19v6.1h1a10.57,10.57,0,0,0,3-.41v-2.06h19v-3.63Z"/><path class="g" d="M102.37,306.08a10.12,10.12,0,0,1-5.21-2.24,5.94,5.94,0,0,1-1.76-4.55,6.53,6.53,0,0,1,2.26-5.22,9.39,9.39,0,0,1,6.23-1.89c5.07,0,7.9,2.38,8.41,7.09h3.46c-.43-3.34-1.67-5.86-3.7-7.51a12.53,12.53,0,0,0-8.11-2.55A13.17,13.17,0,0,0,95.26,292,9.43,9.43,0,0,0,92,299.57a8.73,8.73,0,0,0,2.4,6.55,12.82,12.82,0,0,0,7,3.1l4.29.71a10.71,10.71,0,0,1,5.45,2.26,6.33,6.33,0,0,1,1.84,4.91,6.68,6.68,0,0,1-2.31,5.47,8.41,8.41,0,0,1-3.76,1.61v.75a20.13,20.13,0,0,0,.13,2.27,12.51,12.51,0,0,0,6-2.51,9.58,9.58,0,0,0,3.37-7.81,9.11,9.11,0,0,0-2.46-6.8,13.15,13.15,0,0,0-7.18-3.23Z"/><path class="g" d="M144.63,301.08h-12.2v5.85h.72a11,11,0,0,0,2.81-.34v-2.38h19v-3.13H144.63Z"/><path class="g" d="M138.7,305.16c.16-.15.31-.3.45-.46h-2.7v1.74A6.3,6.3,0,0,0,138.7,305.16Z"/><path class="g" d="M106.86,323.68a7.71,7.71,0,0,0,3.44-1.49,6.21,6.21,0,0,0,2.14-5.09,5.8,5.8,0,0,0-1.68-4.54,8.4,8.4,0,0,0-3.49-1.75,19.69,19.69,0,0,0-.41,4.23Z"/><path class="g" d="M102.85,314.87v9.84a26,26,0,0,0,.15,2.73c0,.16,0,.34,0,.49a12.42,12.42,0,0,0,3.36,7.62C108.76,337.83,112,339,116,339s6.93-1,9.18-3.07a10.68,10.68,0,0,0,3.38-8.26h-3.41a7.66,7.66,0,0,1-2.45,6,9.67,9.67,0,0,1-6.65,2.18c-5.49,0-8.65-2.7-9.44-8l-.06-.49a19.16,19.16,0,0,1-.14-2.35V315a20.3,20.3,0,0,1,.43-4.36c-.4-.1-.81-.19-1.24-.26L103.1,310l.22,0A23.07,23.07,0,0,0,102.85,314.87Z"/><path class="g" d="M102.36,324.35c-4.54-.45-7.12-3-7.65-7.44H91.25a11.52,11.52,0,0,0,3.62,7.81,12.48,12.48,0,0,0,7.63,2.71,26.17,26.17,0,0,1-.14-2.72Z"/><path class="g" d="M108.56,306.74c.09-.11.17-.23.26-.33,1.64-1.77,4-2.67,7.14-2.67a12.29,12.29,0,0,1,3.2.4V300.9a17.31,17.31,0,0,0-3.2-.29c-4,0-7.2,1.15-9.56,3.42a9.61,9.61,0,0,0-1.56,2l2,.35A17.15,17.15,0,0,1,108.56,306.74Z"/><polygon class="g" points="141.27 327.05 145.33 327.05 142.48 321.63 138.48 321.63 141.27 327.05"/><polygon class="g" points="141.13 318 140.58 318 136.62 318 136.06 318 136.06 318 136.06 318 135.96 318 135.96 317.8 132.44 310.96 132.44 338.51 135.96 338.51 135.96 321.14 137.68 321.14 138.23 321.14 142.22 321.14 142.78 321.14 152.22 321.14 152.22 318 141.13 318 141.13 318"/><path class="g" d="M143.73,304.7h-4a5.23,5.23,0,0,1-.74.82,8.49,8.49,0,0,1-5.88,1.91h-4.84c.08.2.15.41.22.62a12.72,12.72,0,0,1,.49,2.35h3.68l3.66,7.11h4l-3.91-7.42.31-.07a10.23,10.23,0,0,0,5.86-3.44A8.77,8.77,0,0,0,143.73,304.7Z"/><path class="g" d="M133.15,293.24h-9.48V302a10.62,10.62,0,0,1,3.2,2.82c.22.29.43.59.62.9a11.44,11.44,0,0,1,.63,1.2h3.82v-6.35h8.7c0-.16,0-.32,0-.49a6.53,6.53,0,0,0-1.93-5.12A8.17,8.17,0,0,0,133.15,293.24Z"/><path class="g" d="M123.67,308a6.33,6.33,0,0,0-.39-.61h-.1V292.75h10a8.63,8.63,0,0,1,5.91,1.85,7,7,0,0,1,2.09,5.49c0,.17,0,.33,0,.49h3.52c0-.18,0-.36,0-.55,0-3.32-1-5.91-3-7.7s-4.74-2.71-8.22-2.71H119.66v37.43h3.52V310.4h1.3a7.41,7.41,0,0,0-.57-1.87C123.83,308.36,123.76,308.2,123.67,308Z"/><path class="g" d="M128.15,308.53a9.49,9.49,0,0,0-.38-1.1,4.34,4.34,0,0,0-.2-.5,8.46,8.46,0,0,0-.5-.94,9.66,9.66,0,0,0-.82-1.16,10.12,10.12,0,0,0-2.58-2.24v4.52l.22.32a7.6,7.6,0,0,1,.57,1.1,8.44,8.44,0,0,1,.53,1.87l.06.49c0,.32.06.65.06,1h3.52c0-.34,0-.67,0-1,0-.17,0-.33-.05-.49A12.38,12.38,0,0,0,128.15,308.53Z"/><path class="i" d="M106.85,306.36l-2-.35-.51-.09-1.88-.33a9.64,9.64,0,0,1-5-2.11,5.48,5.48,0,0,1-1.6-4.19A6,6,0,0,1,98,294.45a8.91,8.91,0,0,1,5.91-1.78c4.92,0,7.52,2.24,8,6.86l0,.23h4.45l0-.28c-.41-3.6-1.72-6.33-3.91-8.1a13,13,0,0,0-8.42-2.67,13.68,13.68,0,0,0-9,2.86,9.91,9.91,0,0,0-3.44,8,9.22,9.22,0,0,0,2.55,6.91,13.27,13.27,0,0,0,7.22,3.22l1.56.26.27.05,2.46.41c.43.07.84.16,1.24.26h0a20.3,20.3,0,0,0-.43,4.36v9.89a19.16,19.16,0,0,0,.14,2.35l.06.49c.79,5.32,4,8,9.44,8a9.67,9.67,0,0,0,6.65-2.18,7.66,7.66,0,0,0,2.45-6h3.41a10.68,10.68,0,0,1-3.38,8.26c-2.25,2-5.34,3.07-9.18,3.07s-7.2-1.15-9.56-3.43a12.42,12.42,0,0,1-3.36-7.62c0-.15,0-.33,0-.49a26,26,0,0,1-.15-2.73v-9.84a23.07,23.07,0,0,1,.47-4.83l-.22,0-.27-.05a23.86,23.86,0,0,0-.47,4.91v9c-4.37-.44-6.73-2.82-7.18-7.22l0-.23H90.71l0,.27c.33,3.68,1.62,6.51,3.82,8.41a12.92,12.92,0,0,0,8,2.83c.43,3.47,1.6,6.16,3.51,8,2.45,2.36,5.78,3.56,9.9,3.56,4,0,7.16-1.08,9.51-3.2a11.12,11.12,0,0,0,3.54-8.64v-.47h-4.39v.47a7.15,7.15,0,0,1-2.29,5.61,9.17,9.17,0,0,1-6.32,2.05c-5.28,0-8.22-2.5-9-7.6a13,13,0,0,0,6.29-2.62,10,10,0,0,0,3.55-8.19,9.63,9.63,0,0,0-2.6-7.16,12.26,12.26,0,0,0-5.21-2.85l-.52-.13A17.15,17.15,0,0,0,106.85,306.36Zm-12,18.36a11.52,11.52,0,0,1-3.62-7.81h3.46c.53,4.49,3.11,7,7.65,7.44v.36a26.17,26.17,0,0,0,.14,2.72A12.48,12.48,0,0,1,94.87,324.72Zm15.89-12.16a5.8,5.8,0,0,1,1.68,4.54,6.21,6.21,0,0,1-2.14,5.09,7.71,7.71,0,0,1-3.44,1.49V315a19.69,19.69,0,0,1,.41-4.23A8.4,8.4,0,0,1,110.76,312.56Zm3.18-2.48a9.11,9.11,0,0,1,2.46,6.8,9.58,9.58,0,0,1-3.37,7.81,12.51,12.51,0,0,1-6,2.51,20.13,20.13,0,0,1-.13-2.27v-.75a8.41,8.41,0,0,0,3.76-1.61,6.68,6.68,0,0,0,2.31-5.47,6.33,6.33,0,0,0-1.84-4.91,10.71,10.71,0,0,0-5.45-2.26l-4.29-.71a12.82,12.82,0,0,1-7-3.1,8.73,8.73,0,0,1-2.4-6.55A9.43,9.43,0,0,1,95.26,292a13.17,13.17,0,0,1,8.69-2.74,12.53,12.53,0,0,1,8.11,2.55c2,1.65,3.27,4.17,3.7,7.51H112.3c-.51-4.71-3.34-7.09-8.41-7.09a9.39,9.39,0,0,0-6.23,1.89,6.53,6.53,0,0,0-2.26,5.22,5.94,5.94,0,0,0,1.76,4.55,10.12,10.12,0,0,0,5.21,2.24l4.39.77A13.15,13.15,0,0,1,113.94,310.08Z"/><path class="i" d="M143,306.9a9.25,9.25,0,0,0,1.32-2.2h11.18v-4.12H145.14c0-.18,0-.36,0-.55,0-3.46-1-6.17-3.13-8.07s-4.95-2.83-8.55-2.83H119.16V300.4a17.32,17.32,0,0,0-3.2-.28c-4.12,0-7.45,1.19-9.9,3.56a9.91,9.91,0,0,0-1.73,2.24l.51.09a9.61,9.61,0,0,1,1.56-2c2.36-2.27,5.58-3.42,9.56-3.42a17.31,17.31,0,0,1,3.2.29v3.24a12.29,12.29,0,0,0-3.2-.4c-3.1,0-5.5.9-7.14,2.67-.09.1-.17.22-.26.33l.52.13.11-.13c1.53-1.66,3.81-2.5,6.77-2.5a11.76,11.76,0,0,1,3.2.41v22.89h4.51V310.89h.88a9.3,9.3,0,0,1,.07,1.07v.41h4.5V312c0-.36,0-.72,0-1.07h2.86V339h4.51V321.63h1.48l3,5.91h5.18L143,321.63h9.68v-4.12H140.87l-3.73-7.09A10.58,10.58,0,0,0,143,306.9Zm12-5.82v3.13H136v2.38h0a11,11,0,0,1-2.81.34h-.72v-5.85H155Zm-15.82,3.62c-.14.16-.29.31-.45.46a6.3,6.3,0,0,1-2.25,1.28h0V304.7Zm1.49-4.12h-8.7v6.35h-3.82a11.44,11.44,0,0,0-.63-1.2c-.19-.31-.4-.61-.62-.9a10.62,10.62,0,0,0-3.2-2.82v-8.77h9.48a8.17,8.17,0,0,1,5.58,1.73,6.53,6.53,0,0,1,1.93,5.12C140.66,300.26,140.64,300.42,140.64,300.58Zm-17.46,9.82v16.65h-3.52V289.62h13.82c3.48,0,6.24.91,8.22,2.71s3,4.38,3,7.7c0,.19,0,.37,0,.55h-3.52c0-.16,0-.32,0-.49a7,7,0,0,0-2.09-5.49,8.63,8.63,0,0,0-5.91-1.85h-10v14.68h.1a6.33,6.33,0,0,1,.39.61c.09.16.16.32.24.49a7.41,7.41,0,0,1,.57,1.87Zm5.45,1.48h-3.52c0-.34,0-.67-.06-1l-.06-.49a8.44,8.44,0,0,0-.53-1.87,7.6,7.6,0,0,0-.57-1.1l-.22-.32v-4.52a10.12,10.12,0,0,1,2.58,2.24,9.66,9.66,0,0,1,.82,1.16,8.46,8.46,0,0,1,.5.94,4.34,4.34,0,0,1,.2.5,9.49,9.49,0,0,1,.38,1.1,12.38,12.38,0,0,1,.38,1.87c0,.16,0,.32.05.49C128.61,311.21,128.63,311.54,128.63,311.88Zm16.7,15.17h-4.06l-2.79-5.42h4Zm6.89-5.91H136v17.37h-3.53V311l0-.07,0,.07L136,317.8V318h16.26ZM136.72,310l-.31.07,3.91,7.42h-4l-3.66-7.11H129a12.72,12.72,0,0,0-.49-2.35c-.07-.21-.14-.42-.22-.62h4.84a8.49,8.49,0,0,0,5.88-1.91,5.23,5.23,0,0,0,.74-.82h4a8.77,8.77,0,0,1-1.15,1.88A10.23,10.23,0,0,1,136.72,310Z"/><line class="j" x1="103.1" y1="310.01" x2="102.83" y2="309.96"/><path class="j" d="M106.8,310.68h0"/><path class="j" d="M108.56,306.74l.52.13"/><line class="j" x1="104.84" y1="306.01" x2="104.33" y2="305.92"/><line class="j" x1="132.4" y1="310.89" x2="132.43" y2="310.96"/><path class="j" d="M136.45,306.44h0"/><path class="j" d="M136,306.59h0"/><path class="j" d="M140.64,300.58h0"/></svg>