<svg xmlns="http://www.w3.org/2000/svg" xmlns:xlink="http://www.w3.org/1999/xlink" viewBox="0 0 162.33 172"><defs><style>.a{fill:none;}.b{fill:#dc3545;}.c{fill:#007bff;}.d{clip-path:url(#a);}</style><clipPath id="a"><rect class="a" x="10.57" y="85.12" width="17.44" height="17.44"/></clipPath></defs><title>SRCF-logo-2020</title><path class="b" d="M.17,72.71H10.54q2,19.73,23.62,19.73,11.22,0,17.06-4.75t5.83-13.83q0-8.2-4.61-12.38t-14-5.76L27.24,53.85q-12.09-2-18.57-8.28T2.19,27.93Q2.19,14.82,11,7.48T34.16.14Q47.41.14,55.83,7t10,20.81H55.47Q53.75,9.21,34,9.21,23.8,9.21,18.1,14T12.41,27.21q0,7.35,4.4,11.45t13.31,5.69l11.52,2Q54.18,48.52,60.8,55t6.62,18.29q0,13.53-9.07,20.95t-24.91,7.42q-15,0-23.47-7.35T.17,72.71Z"/><path class="b" d="M96.08,57.16v43.63H85.56V1.43h36.87q14,0,22,7.28t8,20.66q0,10.65-5.62,17.57t-15.69,9.21l23.47,44.64h-12.1L120,57.16Zm25.48-9.07q9.64,0,15-4.82t5.33-13.76q0-9.21-5.26-13.89t-15.05-4.68H96.08V48.09Z"/><path class="c" d="M11.92,133.78V108q0-19.73,9.5-28.87T46.91,70a40.12,40.12,0,0,1,17.78,3.74A27.61,27.61,0,0,1,76.57,84.38a30.27,30.27,0,0,1,4.18,16v.43H70.24v-.43q0-9.65-6.27-15.27T46.91,79.49q-12,0-18.21,6.77t-6.27,22.17v25.92q0,27.79,24.63,27.79,10.78,0,17-5.54t6.19-15.19v-.58H80.46v.58q0,14-9.07,22.17t-24.48,8.21q-16,0-25.49-9.14T11.92,133.78Z"/><path class="c" d="M112.29,115.63h42.62v9.51H112.29v45.5H101.77V71.28h60.34v9.5H112.29Z"/><g class="d"><path class="b" d="M.17,72.71H10.54q2,19.73,23.62,19.73,11.22,0,17.06-4.75t5.83-13.83q0-8.2-4.61-12.38t-14-5.76L27.24,53.85q-12.09-2-18.57-8.28T2.19,27.93Q2.19,14.82,11,7.48T34.16.14Q47.41.14,55.83,7t10,20.81H55.47Q53.75,9.21,34,9.21,23.8,9.21,18.1,14T12.41,27.21q0,7.35,4.4,11.45t13.31,5.69l11.52,2Q54.18,48.52,60.8,55t6.62,18.29q0,13.53-9.07,20.95t-24.91,7.42q-15,0-23.47-7.35T.17,72.71Z"/></g></svg>