<?xml version="1.0" encoding="UTF-8" standalone="no"?>
<svg
   xmlns:dc="http://purl.org/dc/elements/1.1/"
   xmlns:cc="http://creativecommons.org/ns#"
   xmlns:rdf="http://www.w3.org/1999/02/22-rdf-syntax-ns#"
   xmlns:svg="http://www.w3.org/2000/svg"
   xmlns="http://www.w3.org/2000/svg"
   xmlns:sodipodi="http://sodipodi.sourceforge.net/DTD/sodipodi-0.dtd"
   xmlns:inkscape="http://www.inkscape.org/namespaces/inkscape"
   viewBox="0 0 162.33 172"
   version="1.1"
   id="svg23"
   sodipodi:docname="logo1.svg"
   inkscape:version="0.92.4 (5da689c313, 2019-01-14)">
  <metadata
     id="metadata27">
    <rdf:RDF>
      <cc:Work
         rdf:about="">
        <dc:format>image/svg+xml</dc:format>
        <dc:type
           rdf:resource="http://purl.org/dc/dcmitype/StillImage" />
        <dc:title>SRCF-logo-2020</dc:title>
      </cc:Work>
    </rdf:RDF>
  </metadata>
  <sodipodi:namedview
     pagecolor="#ffffff"
     bordercolor="#666666"
     borderopacity="1"
     objecttolerance="10"
     gridtolerance="10"
     guidetolerance="10"
     inkscape:pageopacity="0"
     inkscape:pageshadow="2"
     inkscape:window-width="1920"
     inkscape:window-height="986"
     id="namedview25"
     showgrid="true"
     inkscape:zoom="3.8808651"
     inkscape:cx="77.027574"
     inkscape:cy="88.152162"
     inkscape:window-x="2869"
     inkscape:window-y="166"
     inkscape:window-maximized="1"
     inkscape:current-layer="layer2">
    <inkscape:grid
       type="xygrid"
       id="grid845" />
  </sodipodi:namedview>
  <defs
     id="defs7">
    <style
       id="style2">.a{fill:none;}.b{fill:#dc3545;}.c{fill:#007bff;}.d{clip-path:url(#a);}</style>
    <clipPath
       id="a">
      <rect
         class="a"
         x="10.57"
         y="85.12"
         width="17.44"
         height="17.44"
         id="rect4" />
    </clipPath>
  </defs>
  <title
     id="title9">SRCF-logo-2020</title>
  <g
     inkscape:groupmode="layer"
     id="layer2"
     inkscape:label="back">
    <rect
       style="opacity:1;fill:#ffffff;fill-opacity:1;fill-rule:nonzero;stroke:#ffffff;stroke-width:0.13610525;stroke-miterlimit:4.19999981;stroke-dasharray:none;stroke-opacity:1"
       id="rect847"
       width="162.5498"
       height="171.93179"
       x="0.00052473001"
       y="0.068209857"
       ry="31.931789" />
  </g>
  <g
     id="g843"
     transform="matrix(0.88381517,0,0,0.86265074,9.4649231,11.594584)">
    <path
       id="path11"
       d="m 0.17,72.71 h 10.37 q 2,19.73 23.62,19.73 11.22,0 17.06,-4.75 5.84,-4.75 5.83,-13.83 0,-8.2 -4.61,-12.38 -4.61,-4.18 -14,-5.76 L 27.24,53.85 Q 15.15,51.85 8.67,45.57 2.19,39.29 2.19,27.93 2.19,14.82 11,7.48 19.81,0.14 34.16,0.14 q 13.25,0 21.67,6.86 8.42,6.86 10,20.81 H 55.47 Q 53.75,9.21 34,9.21 23.8,9.21 18.1,14 q -5.7,4.79 -5.69,13.21 0,7.35 4.4,11.45 4.4,4.1 13.31,5.69 l 11.52,2 q 12.54,2.17 19.16,8.65 6.62,6.48 6.62,18.29 0,13.53 -9.07,20.95 -9.07,7.42 -24.91,7.42 -15,0 -23.47,-7.35 -8.47,-7.35 -9.8,-21.6 z"
       class="b"
       inkscape:connector-curvature="0"
       style="fill:#dc3545" />
    <path
       id="path13"
       d="m 96.08,57.16 v 43.63 H 85.56 V 1.43 h 36.87 q 14,0 22,7.28 8,7.28 8,20.66 0,10.65 -5.62,17.57 -5.62,6.92 -15.69,9.21 l 23.47,44.64 h -12.1 L 120,57.16 Z m 25.48,-9.07 q 9.64,0 15,-4.82 5.36,-4.82 5.33,-13.76 0,-9.21 -5.26,-13.89 -5.26,-4.68 -15.05,-4.68 h -25.5 v 37.15 z"
       class="b"
       inkscape:connector-curvature="0"
       style="fill:#dc3545" />
    <path
       id="path15"
       d="M 11.92,133.78 V 108 q 0,-19.73 9.5,-28.87 9.5,-9.14 25.49,-9.13 a 40.12,40.12 0 0 1 17.78,3.74 27.61,27.61 0 0 1 11.88,10.64 30.27,30.27 0 0 1 4.18,16 v 0.43 H 70.24 v -0.43 q 0,-9.65 -6.27,-15.27 -6.27,-5.62 -17.06,-5.62 -12,0 -18.21,6.77 -6.21,6.77 -6.27,22.17 v 25.92 q 0,27.79 24.63,27.79 10.78,0 17,-5.54 6.22,-5.54 6.19,-15.19 v -0.58 h 10.21 v 0.58 q 0,14 -9.07,22.17 -9.07,8.17 -24.48,8.21 -16,0 -25.49,-9.14 -9.49,-9.14 -9.5,-28.87 z"
       class="c"
       inkscape:connector-curvature="0"
       style="fill:#007bff" />
    <path
       id="path17"
       d="m 112.29,115.63 h 42.62 v 9.51 h -42.62 v 45.5 H 101.77 V 71.28 h 60.34 v 9.5 h -49.82 z"
       class="c"
       inkscape:connector-curvature="0"
       style="fill:#007bff" />
    <g
       id="g21"
       clip-path="url(#a)"
       class="d">
      <path
         id="path19"
         d="m 0.17,72.71 h 10.37 q 2,19.73 23.62,19.73 11.22,0 17.06,-4.75 5.84,-4.75 5.83,-13.83 0,-8.2 -4.61,-12.38 -4.61,-4.18 -14,-5.76 L 27.24,53.85 Q 15.15,51.85 8.67,45.57 2.19,39.29 2.19,27.93 2.19,14.82 11,7.48 19.81,0.14 34.16,0.14 q 13.25,0 21.67,6.86 8.42,6.86 10,20.81 H 55.47 Q 53.75,9.21 34,9.21 23.8,9.21 18.1,14 q -5.7,4.79 -5.69,13.21 0,7.35 4.4,11.45 4.4,4.1 13.31,5.69 l 11.52,2 q 12.54,2.17 19.16,8.65 6.62,6.48 6.62,18.29 0,13.53 -9.07,20.95 -9.07,7.42 -24.91,7.42 -15,0 -23.47,-7.35 -8.47,-7.35 -9.8,-21.6 z"
         class="b"
         inkscape:connector-curvature="0"
         style="fill:#dc3545" />
    </g>
  </g>
  <g
     inkscape:groupmode="layer"
     id="layer1"
     inkscape:label="logo" />
</svg>
